<svg xmlns="http://www.w3.org/2000/svg" viewBox="0 0 120 50" fill="none">
  <path d="M13.976 22.347c0-3.016 1.455-4.407 3.862-4.407 2.407 0 3.862 1.391 3.862 4.407 0 3.016-1.455 4.407-3.862 4.407-2.407 0-3.862-1.391-3.862-4.407zm-4.714 0c0 5.419 3.47 8.519 8.576 8.519 5.106 0 8.576-3.1 8.576-8.519s-3.47-8.519-8.576-8.519c-5.106 0-8.576 3.1-8.576 8.519z" fill="#635BFF"/>
  <path d="M27.76 30.507h4.714V6.5H27.76v24.007z" fill="#635BFF"/>
  <path d="M34.635 22.347c0-3.016 1.455-4.407 3.862-4.407 2.407 0 3.862 1.391 3.862 4.407 0 3.016-1.455 4.407-3.862 4.407-2.407 0-3.862-1.391-3.862-4.407zm-4.714 0c0 5.419 3.47 8.519 8.576 8.519 5.106 0 8.576-3.1 8.576-8.519s-3.47-8.519-8.576-8.519c-5.106 0-8.576 3.1-8.576 8.519z" fill="#635BFF"/>
  <path d="M49.419 22.347c0-3.016 1.455-4.407 3.862-4.407 2.407 0 3.862 1.391 3.862 4.407 0 3.016-1.455 4.407-3.862 4.407-2.407 0-3.862-1.391-3.862-4.407zm-4.714 0c0 5.419 3.47 8.519 8.576 8.519 5.106 0 8.576-3.1 8.576-8.519s-3.47-8.519-8.576-8.519c-5.106 0-8.576 3.1-8.576 8.519z" fill="#635BFF"/>
  <path d="M63.006 14.187h4.714v2.454c.915-1.95 2.65-2.813 4.796-2.813 3.51 0 5.347 2.173 5.347 6.182v10.497h-4.714v-9.563c0-2.213-.836-3.424-2.767-3.424-2.131 0-3.27 1.391-3.27 3.784v9.203h-4.714V14.187h.608z" fill="#635BFF"/>
  <path d="M80.396 22.347c0-5.419 3.51-8.519 7.984-8.519 3.63 0 6.06 1.95 7.015 4.586l-4.235 1.57c-.478-1.45-1.514-2.273-2.888-2.273-1.932 0-3.269 1.45-3.269 4.586 0 3.195 1.337 4.646 3.269 4.646 1.454 0 2.41-.823 2.888-2.273l4.235 1.57c-.955 2.636-3.385 4.586-7.015 4.586-4.474.05-7.984-3.05-7.984-8.479z" fill="#635BFF"/>
  <path d="M96.477 30.507h4.714V14.187h-4.714v16.32zm2.357-18.414c1.495 0 2.61-1.092 2.61-2.513 0-1.42-1.115-2.513-2.61-2.513s-2.61 1.092-2.61 2.513c0 1.42 1.115 2.513 2.61 2.513z" fill="#635BFF"/>
  <path d="M111.405 30.866c-4.116 0-6.966-1.83-7.562-4.646l4.116-1.271c.358 1.451 1.334 2.154 3.187 2.154 1.614 0 2.371-.524 2.371-1.391 0-.868-.637-1.212-2.49-1.57l-1.733-.359c-3.267-.703-5.12-2.333-5.12-5.148 0-3.195 2.769-5.088 6.885-5.088 3.947 0 6.498 1.69 7.184 4.347l-4.077 1.211c-.398-1.271-1.374-1.95-2.987-1.95-1.454 0-2.212.539-2.212 1.331 0 .823.677 1.152 2.331 1.451l1.733.359c3.708.763 5.36 2.453 5.36 5.268-.04 3.374-3.008 5.302-6.986 5.302z" fill="#635BFF"/>
</svg>
